<?xml version="1.0" encoding="UTF-8" standalone="no"?>
<!DOCTYPE svg PUBLIC "-//W3C//DTD SVG 1.1//EN"
 "http://www.w3.org/Graphics/SVG/1.1/DTD/svg11.dtd">
<!-- Generated by graphviz version 15.0.0 (20260523.1842)
 -->
<!-- Title: nightshift Pages: 1 -->
<svg width="1242pt" height="688pt"
 viewBox="0.00 0.00 1242.00 688.00" xmlns="http://www.w3.org/2000/svg" xmlns:xlink="http://www.w3.org/1999/xlink">
<g id="graph0" class="graph" transform="scale(1 1) rotate(0) translate(4 683.75)">
<title>nightshift</title>
<polygon fill="white" stroke="none" points="-4,4 -4,-683.75 1238,-683.75 1238,4 -4,4"/>
<text xml:space="preserve" text-anchor="middle" x="617" y="-658.65" font-family="Helvetica,sans-Serif" font-weight="bold" font-size="18.00">nightshift orchestrator — states</text>
<g id="clust1" class="cluster">
<title>cluster_task</title>
<polygon fill="#f1f5f9" stroke="#f1f5f9" points="83.38,-8 83.38,-262 1177.62,-262 1177.62,-8 83.38,-8"/>
<text xml:space="preserve" text-anchor="middle" x="630.5" y="-245.65" font-family="Helvetica,sans-Serif" font-weight="bold" font-size="13.00">Task lifecycle &#160;· &#160;todo.sh &#160;· &#160;the source of truth</text>
</g>
<g id="clust2" class="cluster">
<title>cluster_worker</title>
<polygon fill="#eef2ff" stroke="#eef2ff" points="69.5,-364 69.5,-547 579.38,-547 579.38,-364 69.5,-364"/>
<text xml:space="preserve" text-anchor="middle" x="324.44" y="-530.65" font-family="Helvetica,sans-Serif" font-weight="bold" font-size="13.00">Worker turn cycle &#160;· &#160;one decision: pick_turn()</text>
</g>
<g id="clust3" class="cluster">
<title>cluster_fleet</title>
<polygon fill="#fff7ed" stroke="#fff7ed" points="8,-555 8,-645 1226,-645 1226,-555 8,-555"/>
<text xml:space="preserve" text-anchor="middle" x="617" y="-628.65" font-family="Helvetica,sans-Serif" font-weight="bold" font-size="13.00">Fleet flags &#160;· &#160;global &#160;· &#160;these gate pick_turn()</text>
</g>
<!-- open -->
<g id="node1" class="node">
<title>open</title>
<path fill="white" stroke="#94a3b8" d="M148.38,-147C148.38,-147 111.38,-147 111.38,-147 105.38,-147 99.38,-141 99.38,-135 99.38,-135 99.38,-123 99.38,-123 99.38,-117 105.38,-111 111.38,-111 111.38,-111 148.38,-111 148.38,-111 154.38,-111 160.38,-117 160.38,-123 160.38,-123 160.38,-135 160.38,-135 160.38,-141 154.38,-147 148.38,-147"/>
<text xml:space="preserve" text-anchor="middle" x="129.88" y="-130.55" font-family="Helvetica,sans-Serif" font-size="11.00">open</text>
<text xml:space="preserve" text-anchor="middle" x="129.88" y="-118.55" font-family="Helvetica,sans-Serif" font-size="11.00">claimable</text>
</g>
<!-- taken -->
<g id="node2" class="node">
<title>taken</title>
<path fill="white" stroke="#94a3b8" d="M536,-81C536,-81 454,-81 454,-81 448,-81 442,-75 442,-69 442,-69 442,-57 442,-57 442,-51 448,-45 454,-45 454,-45 536,-45 536,-45 542,-45 548,-51 548,-57 548,-57 548,-69 548,-69 548,-75 542,-81 536,-81"/>
<text xml:space="preserve" text-anchor="middle" x="495" y="-64.55" font-family="Helvetica,sans-Serif" font-size="11.00">taken</text>
<text xml:space="preserve" text-anchor="middle" x="495" y="-52.55" font-family="Helvetica,sans-Serif" font-size="11.00">a worker claimed it</text>
</g>
<!-- open&#45;&gt;taken -->
<g id="edge1" class="edge">
<title>open&#45;&gt;taken</title>
<path fill="none" stroke="#475569" d="M149.28,-110.64C171.72,-89.7 211.84,-56.65 253.75,-43.5 311.72,-25.31 381.22,-34.03 430.51,-44.98"/>
<polygon fill="#475569" stroke="#475569" points="429.64,-48.37 440.18,-47.23 431.23,-41.55 429.64,-48.37"/>
<text xml:space="preserve" text-anchor="middle" x="316.38" y="-54.45" font-family="Helvetica,sans-Serif" font-size="9.00">worker claims</text>
<text xml:space="preserve" text-anchor="middle" x="316.38" y="-44.7" font-family="Helvetica,sans-Serif" font-size="9.00">(next)</text>
</g>
<!-- held -->
<g id="node5" class="node">
<title>held</title>
<path fill="#fee2e2" stroke="#dc2626" d="M528.12,-190C528.12,-190 461.88,-190 461.88,-190 455.88,-190 449.88,-184 449.88,-178 449.88,-178 449.88,-166 449.88,-166 449.88,-160 455.88,-154 461.88,-154 461.88,-154 528.12,-154 528.12,-154 534.12,-154 540.12,-160 540.12,-166 540.12,-166 540.12,-178 540.12,-178 540.12,-184 534.12,-190 528.12,-190"/>
<text xml:space="preserve" text-anchor="middle" x="495" y="-173.55" font-family="Helvetica,sans-Serif" font-size="11.00">held</text>
<text xml:space="preserve" text-anchor="middle" x="495" y="-161.55" font-family="Helvetica,sans-Serif" font-size="11.00">needs a human</text>
</g>
<!-- open&#45;&gt;held -->
<g id="edge6" class="edge">
<title>open&#45;&gt;held</title>
<path fill="none" stroke="#dc2626" d="M160.58,-125.96C207.43,-121.88 301.18,-116.64 379,-130.5 400.51,-134.33 423.32,-141.79 442.9,-149.34"/>
<polygon fill="#dc2626" stroke="#dc2626" points="441.42,-152.52 452.01,-152.96 444.01,-146.02 441.42,-152.52"/>
<text xml:space="preserve" text-anchor="middle" x="316.38" y="-141.45" font-family="Helvetica,sans-Serif" font-size="9.00" fill="#dc2626">stalled: K turns,</text>
<text xml:space="preserve" text-anchor="middle" x="316.38" y="-131.7" font-family="Helvetica,sans-Serif" font-size="9.00" fill="#dc2626">no progress</text>
</g>
<!-- open&#45;&gt;held -->
<g id="edge7" class="edge">
<title>open&#45;&gt;held</title>
<path fill="none" stroke="#475569" stroke-dasharray="5,2" d="M160.57,-134.74C185.4,-139.38 221.78,-145.81 253.75,-150 316.8,-158.26 389.57,-164.46 438.35,-168.14"/>
<polygon fill="#475569" stroke="#475569" points="437.86,-171.61 448.1,-168.86 438.38,-164.63 437.86,-171.61"/>
<text xml:space="preserve" text-anchor="middle" x="316.38" y="-174.17" font-family="Helvetica,sans-Serif" font-size="9.00">fixed&#45;set fence</text>
<text xml:space="preserve" text-anchor="middle" x="316.38" y="-164.42" font-family="Helvetica,sans-Serif" font-size="9.00">(out&#45;of&#45;set, parked)</text>
</g>
<!-- taken&#45;&gt;open -->
<g id="edge5" class="edge">
<title>taken&#45;&gt;open</title>
<path fill="none" stroke="#b45309" d="M441.69,-68.66C392.82,-74.35 317.98,-84.14 253.75,-97 225.95,-102.57 195.06,-110.62 171.21,-117.25"/>
<polygon fill="#b45309" stroke="#b45309" points="170.58,-113.79 161.91,-119.87 172.48,-120.53 170.58,-113.79"/>
<text xml:space="preserve" text-anchor="middle" x="316.38" y="-109.45" font-family="Helvetica,sans-Serif" font-size="9.00" fill="#b45309">timeout / conflict</text>
<text xml:space="preserve" text-anchor="middle" x="316.38" y="-99.7" font-family="Helvetica,sans-Serif" font-size="9.00" fill="#b45309">→ release (requeue)</text>
</g>
<!-- review -->
<g id="node3" class="node">
<title>review</title>
<path fill="white" stroke="#94a3b8" d="M852,-81C852,-81 725,-81 725,-81 719,-81 713,-75 713,-69 713,-69 713,-57 713,-57 713,-51 719,-45 725,-45 725,-45 852,-45 852,-45 858,-45 864,-51 864,-57 864,-57 864,-69 864,-69 864,-75 858,-81 852,-81"/>
<text xml:space="preserve" text-anchor="middle" x="788.5" y="-64.55" font-family="Helvetica,sans-Serif" font-size="11.00">review</text>
<text xml:space="preserve" text-anchor="middle" x="788.5" y="-52.55" font-family="Helvetica,sans-Serif" font-size="11.00">PR opened / branch pushed</text>
</g>
<!-- taken&#45;&gt;review -->
<g id="edge2" class="edge">
<title>taken&#45;&gt;review</title>
<path fill="none" stroke="#475569" d="M548.45,-63C590.95,-63 651.72,-63 701.35,-63"/>
<polygon fill="#475569" stroke="#475569" points="701.22,-66.5 711.22,-63 701.22,-59.5 701.22,-66.5"/>
<text xml:space="preserve" text-anchor="middle" x="644" y="-64.2" font-family="Helvetica,sans-Serif" font-size="9.00">turn opens a PR</text>
</g>
<!-- done -->
<g id="node4" class="node">
<title>done</title>
<path fill="#dcfce7" stroke="#16a34a" d="M1149.62,-81C1149.62,-81 1060.88,-81 1060.88,-81 1054.88,-81 1048.88,-75 1048.88,-69 1048.88,-69 1048.88,-57 1048.88,-57 1048.88,-51 1054.88,-45 1060.88,-45 1060.88,-45 1149.62,-45 1149.62,-45 1155.62,-45 1161.62,-51 1161.62,-57 1161.62,-57 1161.62,-69 1161.62,-69 1161.62,-75 1155.62,-81 1149.62,-81"/>
<text xml:space="preserve" text-anchor="middle" x="1105.25" y="-65.67" font-family="Helvetica,sans-Serif" font-size="11.00">done</text>
<text xml:space="preserve" text-anchor="middle" x="1105.25" y="-53.67" font-family="Helvetica,sans-Serif" font-size="11.00">merged → nightshift</text>
</g>
<!-- review&#45;&gt;done -->
<g id="edge3" class="edge">
<title>review&#45;&gt;done</title>
<path fill="none" stroke="#475569" d="M864.46,-47.96C876.3,-46.11 888.45,-44.51 900,-43.5 936.53,-40.3 945.95,-40.59 982.5,-43.5 1000.35,-44.92 1019.54,-47.5 1037.28,-50.32"/>
<polygon fill="#475569" stroke="#475569" points="1036.48,-53.73 1046.91,-51.9 1037.61,-46.83 1036.48,-53.73"/>
<text xml:space="preserve" text-anchor="middle" x="941.25" y="-54.45" font-family="Helvetica,sans-Serif" font-size="9.00">orchestrator merges</text>
<text xml:space="preserve" text-anchor="middle" x="941.25" y="-44.7" font-family="Helvetica,sans-Serif" font-size="9.00">(green&#45;gate passes)</text>
</g>
<!-- review&#45;&gt;done -->
<g id="edge4" class="edge">
<title>review&#45;&gt;done</title>
<path fill="none" stroke="#2563eb" stroke-dasharray="5,2" d="M864.49,-63C916.95,-63 986.43,-63 1037.08,-63"/>
<polygon fill="#2563eb" stroke="#2563eb" points="1037.04,-66.5 1047.04,-63 1037.04,-59.5 1037.04,-66.5"/>
<text xml:space="preserve" text-anchor="middle" x="941.25" y="-73.95" font-family="Helvetica,sans-Serif" font-size="9.00" fill="#2563eb">reconcile heals a</text>
<text xml:space="preserve" text-anchor="middle" x="941.25" y="-64.2" font-family="Helvetica,sans-Serif" font-size="9.00" fill="#2563eb">branchless orphan</text>
</g>
<!-- held&#45;&gt;open -->
<g id="edge8" class="edge">
<title>held&#45;&gt;open</title>
<path fill="none" stroke="#475569" d="M449.57,-182.14C400.9,-191.56 320.83,-202.04 253.75,-187 224.27,-180.39 193.54,-165.88 170.19,-153.03"/>
<polygon fill="#475569" stroke="#475569" points="172.08,-150.08 161.65,-148.21 168.63,-156.17 172.08,-150.08"/>
<text xml:space="preserve" text-anchor="middle" x="316.38" y="-195.75" font-family="Helvetica,sans-Serif" font-size="9.00">human release</text>
</g>
<!-- idle -->
<g id="node6" class="node">
<title>idle</title>
<path fill="white" stroke="#818cf8" d="M162.25,-439C162.25,-439 97.5,-439 97.5,-439 91.5,-439 85.5,-433 85.5,-427 85.5,-427 85.5,-415 85.5,-415 85.5,-409 91.5,-403 97.5,-403 97.5,-403 162.25,-403 162.25,-403 168.25,-403 174.25,-409 174.25,-415 174.25,-415 174.25,-427 174.25,-427 174.25,-433 168.25,-439 162.25,-439"/>
<text xml:space="preserve" text-anchor="middle" x="129.88" y="-422.55" font-family="Helvetica,sans-Serif" font-size="11.00">idle</text>
<text xml:space="preserve" text-anchor="middle" x="129.88" y="-410.55" font-family="Helvetica,sans-Serif" font-size="11.00">no turn running</text>
</g>
<!-- idle&#45;&gt;idle -->
<g id="edge12" class="edge">
<title>idle&#45;&gt;idle</title>
<path fill="none" stroke="#475569" d="M96.14,-439.15C90.94,-448.54 102.19,-457 129.88,-457 145.45,-457 155.82,-454.32 160.99,-450.31"/>
<polygon fill="#475569" stroke="#475569" points="164.38,-451.16 163.27,-440.63 157.57,-449.56 164.38,-451.16"/>
<text xml:space="preserve" text-anchor="middle" x="129.88" y="-469.45" font-family="Helvetica,sans-Serif" font-size="9.00">pick_turn → &quot;&quot; &#160;→ park, do nothing</text>
<text xml:space="preserve" text-anchor="middle" x="129.88" y="-458.2" font-family="Helvetica,sans-Serif" font-size="9.00">(quiet · red&#45;base · fixed&#45;set · replan cooldown)</text>
</g>
<!-- running -->
<g id="node7" class="node">
<title>running</title>
<path fill="#e0e7ff" stroke="#6366f1" d="M551.38,-462C551.38,-462 438.62,-462 438.62,-462 432.62,-462 426.62,-456 426.62,-450 426.62,-450 426.62,-438 426.62,-438 426.62,-432 432.62,-426 438.62,-426 438.62,-426 551.38,-426 551.38,-426 557.38,-426 563.38,-432 563.38,-438 563.38,-438 563.38,-450 563.38,-450 563.38,-456 557.38,-462 551.38,-462"/>
<text xml:space="preserve" text-anchor="middle" x="495" y="-445.55" font-family="Helvetica,sans-Serif" font-size="11.00">running a turn</text>
<text xml:space="preserve" text-anchor="middle" x="495" y="-433.55" font-family="Helvetica,sans-Serif" font-size="11.00">claude &#45;p &#160;(or tmux pane)</text>
</g>
<!-- idle&#45;&gt;running -->
<g id="edge9" class="edge">
<title>idle&#45;&gt;running</title>
<path fill="none" stroke="#475569" d="M174.7,-410.11C224.56,-399.35 308.23,-386.29 379,-399.5 401.83,-403.76 425.97,-412.41 446.2,-420.95"/>
<polygon fill="#475569" stroke="#475569" points="444.75,-424.14 455.31,-424.92 447.54,-417.72 444.75,-424.14"/>
<text xml:space="preserve" text-anchor="middle" x="316.38" y="-413.45" font-family="Helvetica,sans-Serif" font-size="9.00">pick_turn → &quot;/continue&quot; or plan</text>
<text xml:space="preserve" text-anchor="middle" x="316.38" y="-402.2" font-family="Helvetica,sans-Serif" font-size="9.00">→ launch the turn</text>
</g>
<!-- note_worker -->
<g id="node8" class="node">
<title>note_worker</title>
<polygon fill="#fefce8" stroke="#ca8a04" points="587,-347.75 397,-347.75 397,-278.25 593,-278.25 593,-341.75 587,-347.75"/>
<polyline fill="none" stroke="#ca8a04" points="587,-347.75 587,-341.75"/>
<polyline fill="none" stroke="#ca8a04" points="593,-341.75 587,-341.75"/>
<text xml:space="preserve" text-anchor="middle" x="495" y="-335.2" font-family="Helvetica,sans-Serif" font-size="9.00">No per&#45;worker STATE array any more.</text>
<text xml:space="preserve" text-anchor="middle" x="495" y="-325.45" font-family="Helvetica,sans-Serif" font-size="9.00">idle vs running is read from the live signal:</text>
<text xml:space="preserve" text-anchor="middle" x="495" y="-315.7" font-family="Helvetica,sans-Serif" font-size="9.00"> &#160;headless → is the turn PID alive?</text>
<text xml:space="preserve" text-anchor="middle" x="495" y="-304.45" font-family="Helvetica,sans-Serif" font-size="9.00"> &#160;tmux &#160;&#160;&#160;→ marker count + pane footer</text>
<text xml:space="preserve" text-anchor="middle" x="495" y="-293.2" font-family="Helvetica,sans-Serif" font-size="9.00">tmux keeps ONE extra bit, PENDING, only to</text>
<text xml:space="preserve" text-anchor="middle" x="495" y="-283.45" font-family="Helvetica,sans-Serif" font-size="9.00">resend a prompt that never started a turn.</text>
</g>
<!-- idle&#45;&gt;note_worker -->
<!-- running&#45;&gt;idle -->
<g id="edge10" class="edge">
<title>running&#45;&gt;idle</title>
<path fill="none" stroke="#475569" d="M426.24,-439.71C356.8,-435.31 250.15,-428.55 185.79,-424.48"/>
<polygon fill="#475569" stroke="#475569" points="186.39,-421.01 176.19,-423.87 185.95,-428 186.39,-421.01"/>
<text xml:space="preserve" text-anchor="middle" x="316.38" y="-449.01" font-family="Helvetica,sans-Serif" font-size="9.00">turn ends → harvest_branch()</text>
<text xml:space="preserve" text-anchor="middle" x="316.38" y="-437.76" font-family="Helvetica,sans-Serif" font-size="9.00">(merge result, count the stall)</text>
</g>
<!-- running&#45;&gt;idle -->
<g id="edge11" class="edge">
<title>running&#45;&gt;idle</title>
<path fill="none" stroke="#b45309" stroke-dasharray="5,2" d="M426.32,-457.52C377.98,-465.13 311.55,-471.39 253.75,-462 230.78,-458.27 206.31,-450.86 185.3,-443.35"/>
<polygon fill="#b45309" stroke="#b45309" points="186.67,-440.12 176.07,-439.95 184.25,-446.69 186.67,-440.12"/>
<text xml:space="preserve" text-anchor="middle" x="316.38" y="-479.17" font-family="Helvetica,sans-Serif" font-size="9.00" fill="#b45309">timeout rc 124 →</text>
<text xml:space="preserve" text-anchor="middle" x="316.38" y="-467.92" font-family="Helvetica,sans-Serif" font-size="9.00" fill="#b45309">discard branch, release task</text>
</g>
<!-- f_base -->
<g id="node9" class="node">
<title>f_base</title>
<polygon fill="#ffedd5" stroke="#ea580c" points="229.75,-607 24,-607 24,-571 235.75,-571 235.75,-601 229.75,-607"/>
<polyline fill="none" stroke="#ea580c" points="229.75,-607 229.75,-601"/>
<polyline fill="none" stroke="#ea580c" points="235.75,-601 229.75,-601"/>
<text xml:space="preserve" text-anchor="middle" x="129.88" y="-591.5" font-family="Helvetica,sans-Serif" font-size="10.00">BASE_RED — nightshift&#39;s own tests are red</text>
<text xml:space="preserve" text-anchor="middle" x="129.88" y="-580.25" font-family="Helvetica,sans-Serif" font-size="10.00">→ feed ONE fixer per cycle, park the rest</text>
</g>
<!-- f_stall -->
<g id="node10" class="node">
<title>f_stall</title>
<polygon fill="#ffedd5" stroke="#ea580c" points="585.5,-607 398.5,-607 398.5,-571 591.5,-571 591.5,-601 585.5,-607"/>
<polyline fill="none" stroke="#ea580c" points="585.5,-607 585.5,-601"/>
<polyline fill="none" stroke="#ea580c" points="591.5,-601 585.5,-601"/>
<text xml:space="preserve" text-anchor="middle" x="495" y="-591.5" font-family="Helvetica,sans-Serif" font-size="10.00">STALLED / NOMERGE ≥ STALL_K</text>
<text xml:space="preserve" text-anchor="middle" x="495" y="-580.25" font-family="Helvetica,sans-Serif" font-size="10.00">→ go quiet; hold open tasks for a human</text>
</g>
<!-- f_base&#45;&gt;f_stall -->
<!-- f_limit -->
<g id="node11" class="node">
<title>f_limit</title>
<polygon fill="#ffedd5" stroke="#ea580c" points="876,-607 695,-607 695,-571 882,-571 882,-601 876,-607"/>
<polyline fill="none" stroke="#ea580c" points="876,-607 876,-601"/>
<polyline fill="none" stroke="#ea580c" points="882,-601 876,-601"/>
<text xml:space="preserve" text-anchor="middle" x="788.5" y="-591.5" font-family="Helvetica,sans-Serif" font-size="10.00">LIMIT_HIT — a turn hit a usage limit</text>
<text xml:space="preserve" text-anchor="middle" x="788.5" y="-580.25" font-family="Helvetica,sans-Serif" font-size="10.00">→ back off 5 min instead of fast&#45;polling</text>
</g>
<!-- f_stall&#45;&gt;f_limit -->
<!-- f_fixed -->
<g id="node12" class="node">
<title>f_fixed</title>
<polygon fill="#ffedd5" stroke="#ea580c" points="1204,-607 1000.5,-607 1000.5,-571 1210,-571 1210,-601 1204,-607"/>
<polyline fill="none" stroke="#ea580c" points="1204,-607 1204,-601"/>
<polyline fill="none" stroke="#ea580c" points="1210,-601 1204,-601"/>
<text xml:space="preserve" text-anchor="middle" x="1105.25" y="-590.75" font-family="Helvetica,sans-Serif" font-size="10.00">FIXED_SET (&#45;&#45;only) — never plan;</text>
<text xml:space="preserve" text-anchor="middle" x="1105.25" y="-579.5" font-family="Helvetica,sans-Serif" font-size="10.00">wind down when the selected set is terminal</text>
</g>
<!-- f_limit&#45;&gt;f_fixed -->
</g>
</svg>
